<svg xmlns="http://www.w3.org/2000/svg" viewBox="0 0 60 60"><title>22-Car Delivery</title><g id="_22-Car_Delivery" data-name="22-Car Delivery"><rect x="13" y="25" width="8" height="4" rx="1" ry="1" style="fill:#f2f2f2"/><path d="M27,21V33a3,3,0,0,1-3,3H10a3,3,0,0,1-3-3V21H27Zm-6,7V26a1,1,0,0,0-1-1H14a1,1,0,0,0-1,1v2a1,1,0,0,0,1,1h6A1,1,0,0,0,21,28Z" style="fill:#e3a76f"/><path d="M29,17v3a1,1,0,0,1-1,1H22l5-5h1A1,1,0,0,1,29,17Z" style="fill:#f2f2f2"/><polygon points="27 16 22 21 17 21 22 16 27 16" style="fill:#c18f5f"/><polygon points="22 16 17 21 12 21 17 16 22 16" style="fill:#f2f2f2"/><polygon points="17 16 12 21 7 21 12 16 17 16" style="fill:#c18f5f"/><path d="M12,16,7,21H6a1,1,0,0,1-1-1V17a1,1,0,0,1,1-1Z" style="fill:#f2f2f2"/><rect x="7" y="21" width="20" height="3" style="fill:#c39160"/><path d="M3,36H15a6,6,0,0,0-5.69,4.11L9,40H1V36Z" style="fill:#dce1eb"/><circle cx="15" cy="42" r="2" style="fill:#e9edf5"/><path d="M20.69,40.11A5.9,5.9,0,0,1,21,42,6,6,0,0,1,9,42a5.9,5.9,0,0,1,.31-1.89,5.994,5.994,0,0,1,11.38,0ZM17,42a2,2,0,1,0-2,2A2.006,2.006,0,0,0,17,42Z" style="fill:#7e8596"/><circle cx="45" cy="42" r="2" style="fill:#e9edf5"/><path d="M50.69,40.11A5.9,5.9,0,0,1,51,42a6,6,0,0,1-12,0,5.9,5.9,0,0,1,.31-1.89,5.994,5.994,0,0,1,11.38,0ZM47,42a2,2,0,1,0-2,2A2.006,2.006,0,0,0,47,42Z" style="fill:#7e8596"/><path d="M50.69,40.11A6,6,0,0,0,45,36H57s0,4-4,4H51Z" style="fill:#bec3d2"/><path d="M48,11l6,15H38V23l-4-4V14a2.938,2.938,0,0,1,3-3Z" style="fill:#65b1fc"/><path d="M38,23v3H54s5,2,5,4v6H45a6,6,0,0,0-5.69,4.11L39,40H21l-.31.11A6,6,0,0,0,15,36H34V19Z" style="fill:#dce1eb"/><polygon points="38 23 34 19 34 20 34 24 34 28 34 32 34 36 34 40 38 40 38 26 38 23" style="fill:#bec3d2"/><path d="M38.7,11H37a2.938,2.938,0,0,0-3,3v2.26A16.051,16.051,0,0,1,38.7,11Z" style="fill:#87c7ff"/><path d="M36.425,21.425a16,16,0,0,1,12.062-9.209L48,11H38.7A16.051,16.051,0,0,0,34,16.26V19Z" style="fill:#a3d4ff"/><path d="M54.759,25.231l-5.84-13.625A1,1,0,0,0,48,11H37a3.887,3.887,0,0,0-4,4V35H27.444A3.959,3.959,0,0,0,28,33V22a2,2,0,0,0,2-2V17a2,2,0,0,0-2-2H6a2,2,0,0,0-2,2v3a2,2,0,0,0,2,2V33a3.959,3.959,0,0,0,.556,2H1a1,1,0,0,0-1,1v4a1,1,0,0,0,1,1H8.08a7,7,0,1,0,13.84,0H38.08a7,7,0,1,0,13.84,0H53a4.686,4.686,0,0,0,4.9-4H59a1,1,0,0,0,1-1V30C60,27.723,56.379,25.922,54.759,25.231ZM37,13H47.341l5.143,12H39V23a1,1,0,0,0-.293-.707L35,18.586V15A1.883,1.883,0,0,1,37,13Zm-9,7H24.414l3-3H28Zm-8.586,0,3-3h2.172l-3,3Zm-5,0,3-3h2.172l-3,3Zm-5,0,3-3h2.172l-3,3ZM6,17H9.586l-3,3H6ZM8,33V22H26V33a2,2,0,0,1-2,2H10A2,2,0,0,1,8,33ZM2,39V37h8.111a7.016,7.016,0,0,0-1.426,2Zm13,8a5,5,0,1,1,5-5A5.006,5.006,0,0,1,15,47Zm30,0a5,5,0,1,1,5-5A5.006,5.006,0,0,1,45,47Zm8-8H51.315a7.016,7.016,0,0,0-1.426-2h5.955A2.682,2.682,0,0,1,53,39Zm5-4H45a7,7,0,0,0-6.315,4H21.315a7.016,7.016,0,0,0-1.426-2H34a1,1,0,0,0,1-1V21.414l2,2V33a1,1,0,0,0,2,0V27H53.793C56.014,27.921,58,29.327,58,30Z" style="fill:#2b1505"/><path d="M15,39a3,3,0,1,0,3,3A3,3,0,0,0,15,39Zm0,4a1,1,0,1,1,1-1A1,1,0,0,1,15,43Z" style="fill:#2b1505"/><path d="M45,39a3,3,0,1,0,3,3A3,3,0,0,0,45,39Zm0,4a1,1,0,1,1,1-1A1,1,0,0,1,45,43Z" style="fill:#2b1505"/><path d="M52,30H51a1,1,0,0,0,0,2h1a1,1,0,0,0,0-2Z" style="fill:#2b1505"/><path d="M22,28V26a2,2,0,0,0-2-2H14a2,2,0,0,0-2,2v2a2,2,0,0,0,2,2h6A2,2,0,0,0,22,28Zm-8-2h6v2H14Z" style="fill:#2b1505"/></g></svg>